<?xml version="1.0" encoding="UTF-8" standalone="no"?>
<svg
   xmlns:dc="http://purl.org/dc/elements/1.1/"
   xmlns:cc="http://creativecommons.org/ns#"
   xmlns:rdf="http://www.w3.org/1999/02/22-rdf-syntax-ns#"
   xmlns:svg="http://www.w3.org/2000/svg"
   xmlns="http://www.w3.org/2000/svg"
   xmlns:sodipodi="http://sodipodi.sourceforge.net/DTD/sodipodi-0.dtd"
   xmlns:inkscape="http://www.inkscape.org/namespaces/inkscape"
   version="1.0"
   width="38.000000pt"
   height="38.000000pt"
   viewBox="0 0 172.000000 172.000000"
   preserveAspectRatio="xMidYMid meet"
   id="svg12"
   sodipodi:docname="logo.svg"
   inkscape:version="0.92.2 (5c3e80d, 2017-08-06)">
  <defs
     id="defs16" />
  <sodipodi:namedview
     pagecolor="#ffffff"
     bordercolor="#666666"
     borderopacity="1"
     objecttolerance="10"
     gridtolerance="10"
     guidetolerance="10"
     inkscape:pageopacity="0"
     inkscape:pageshadow="2"
     inkscape:window-width="2497"
     inkscape:window-height="1057"
     id="namedview14"
     showgrid="false"
     showguides="false"
     inkscape:guide-bbox="true"
     inkscape:zoom="1.1644737"
     inkscape:cx="-171.68872"
     inkscape:cy="-141.63476"
     inkscape:window-x="-8"
     inkscape:window-y="-8"
     inkscape:window-maximized="1"
     inkscape:current-layer="svg12">
    <sodipodi:guide
       position="83.084744,138.29237"
       orientation="0,1"
       id="guide841"
       inkscape:locked="false" />
    <sodipodi:guide
       position="104.94915,36.62288"
       orientation="0,1"
       id="guide843"
       inkscape:locked="false" />
  </sodipodi:namedview>
  <metadata
     id="metadata2">
Created by Docfx
<rdf:RDF>
  <cc:Work
     rdf:about="">
    <dc:format>image/svg+xml</dc:format>
    <dc:type
       rdf:resource="http://purl.org/dc/dcmitype/StillImage" />
  </cc:Work>
</rdf:RDF>
</metadata>
  <path
     d="M 84.16661,84.711631 C 87.185486,52.457304 70.819987,36.250712 44.603431,36.250712 c -25.422132,0 -41.6287266,17.159931 -41.6287266,40.993164 0,25.104354 16.0477046,41.787624 43.0587216,41.787624 11.916612,0 25.422118,-4.1311 33.684306,-12.71106 L 67.32445,94.086035 c -4.448873,4.607759 -13.823286,7.308855 -20.973258,7.308855 -13.664386,0 -22.085462,-6.991071 -23.356566,-16.683259 z M 23.312391,68.663911 c 2.85999,-10.16885 11.439956,-15.253268 21.926588,-15.253268 11.122173,0 19.066594,5.084418 20.337698,15.253268 z"
     style="font-style:normal;font-variant:normal;font-weight:bold;font-stretch:normal;font-size:11.28888893px;line-height:7.1251297px;font-family:'Nexa Bold';-inkscape-font-specification:'Nexa Bold, Bold';letter-spacing:0px;word-spacing:0px;fill:#91b400;fill-opacity:1;stroke:none;stroke-width:4.01137495px;stroke-linecap:butt;stroke-linejoin:miter;stroke-opacity:1"
     id="path5260"
     inkscape:connector-curvature="0" />
  <path
     d="m 111.42132,107.49223 c -7.4181,0 -12.512444,-5.6306 -12.512444,-12.51246 0,-6.881828 4.647464,-12.51243 12.512444,-12.51243 7.86495,0 12.51245,5.630602 12.51245,12.51243 0,6.88186 -5.09436,12.51246 -12.51245,12.51246 z m -13.495577,27.88489 v -23.5949 c 3.128107,4.82622 10.009957,6.25621 14.657447,6.25621 14.12119,0 22.25427,-10.18871 22.25427,-23.05866 0,-12.959303 -9.02683,-23.058639 -22.61177,-23.058639 -5.00499,0 -10.90372,2.144993 -14.299947,7.060598 l -0.715,-6.077476 H 87.022036 v 62.472867 z"
     style="font-style:normal;font-variant:normal;font-weight:normal;font-stretch:normal;font-size:6.34999943px;line-height:7.1251297px;font-family:Libertad;-inkscape-font-specification:Libertad;letter-spacing:0px;word-spacing:0px;fill:#91b400;fill-opacity:1;stroke:none;stroke-width:4.01137495px;stroke-linecap:butt;stroke-linejoin:miter;stroke-opacity:1"
     id="path5262"
     inkscape:connector-curvature="0" />
  <g
     transform="matrix(14.074747,0,0,14.074747,-1222.8017,-850.50685)"
     aria-label=".net "
     style="font-style:normal;font-variant:normal;font-weight:normal;font-stretch:normal;font-size:1.46339846px;line-height:1.95990896px;font-family:Libertad;-inkscape-font-specification:Libertad;letter-spacing:0px;word-spacing:0px;fill:#91b400;fill-opacity:1;stroke:none;stroke-width:0.07839636px;stroke-linecap:butt;stroke-linejoin:miter;stroke-opacity:1"
     id="text4643">
    <path
       d="m 93.239634,64.862182 c 0,0.134564 0.08563,0.214952 0.220195,0.214952 0.188738,0 0.326797,-0.11534 0.326797,-0.319806 0,-0.134564 -0.08388,-0.214952 -0.218447,-0.214952 -0.188739,0 -0.328545,0.11534 -0.328545,0.319806 z"
       style="font-style:italic;font-variant:normal;font-weight:bold;font-stretch:normal;font-size:3.57903838px;font-family:Libertad;-inkscape-font-specification:'Libertad Bold Italic';fill:#c8c8c8;fill-opacity:1;stroke-width:0.07839636px"
       id="path5265"
       inkscape:connector-curvature="0" />
    <path
       d="m 94.427987,63.252664 c 0.007,0.08388 -0.0017,0.221942 -0.0367,0.438642 l -0.213205,1.350877 h 0.461361 l 0.04194,-0.269127 c 0.113592,-0.716507 0.473593,-1.095731 0.637865,-1.095731 0.10136,0 0.09437,0.136311 0.08388,0.197476 l -0.129321,0.817866 c -0.02272,0.146797 -0.007,0.302331 0.01049,0.349516 h 0.431651 c -0.007,-0.08388 0,-0.221942 0.03495,-0.438642 l 0.125825,-0.78641 c 0.05592,-0.35301 -0.02971,-0.599419 -0.342525,-0.599419 -0.316311,0 -0.599419,0.33204 -0.809128,0.789905 0.03845,-0.117088 0.103107,-0.300583 0.131068,-0.435147 0.02621,-0.118835 0.03146,-0.241165 0.007,-0.319806 z"
       style="font-style:italic;font-variant:normal;font-weight:bold;font-stretch:normal;font-size:3.57903838px;font-family:Libertad;-inkscape-font-specification:'Libertad Bold Italic';fill:#c8c8c8;fill-opacity:1;stroke-width:0.07839636px"
       id="path5267"
       inkscape:connector-curvature="0" />
    <path
       d="m 97.475762,63.626645 c 0,-0.253398 -0.169515,-0.408933 -0.475341,-0.408933 -0.608157,0 -0.933207,0.700779 -0.933207,1.289712 0,0.387962 0.171263,0.56971 0.477089,0.56971 0.333787,0 0.629128,-0.139806 0.744468,-0.213204 l -0.05418,-0.33204 c -0.12233,0.05418 -0.38971,0.164273 -0.553982,0.164273 -0.09961,0 -0.139806,-0.06816 -0.139806,-0.193981 0,-0.06117 0.0035,-0.127574 0.01398,-0.192234 0.541748,-0.07864 0.926216,-0.302331 0.920973,-0.683303 z m -0.51204,-0.06117 c 0.05942,0 0.09612,0.0367 0.09612,0.10835 0,0.18 -0.209709,0.337282 -0.470098,0.387962 0.06116,-0.263884 0.213205,-0.496312 0.373982,-0.496312 z"
       style="font-style:italic;font-variant:normal;font-weight:bold;font-stretch:normal;font-size:3.57903838px;font-family:Libertad;-inkscape-font-specification:'Libertad Bold Italic';fill:#c8c8c8;fill-opacity:1;stroke-width:0.07839636px"
       id="path5269"
       inkscape:connector-curvature="0" />
    <path
       d="m 98.492852,62.82276 -0.401943,0.0332 -0.09786,0.41068 -0.279613,0.01748 -0.05068,0.316312 h 0.251651 l -0.152039,0.950682 c -0.06117,0.382719 0.103107,0.52602 0.414175,0.52602 0.232428,0 0.464856,-0.09262 0.573206,-0.153786 l -0.05418,-0.330292 c -0.10136,0.04369 -0.293593,0.103107 -0.377477,0.103107 -0.06816,0 -0.09612,-0.03146 -0.09087,-0.113593 -0.0017,-0.01748 0,-0.04019 0.0052,-0.0734 l 0.143301,-0.90874 h 0.442137 l 0.05592,-0.347768 h -0.449128 z"
       style="font-style:italic;font-variant:normal;font-weight:bold;font-stretch:normal;font-size:3.57903838px;font-family:Libertad;-inkscape-font-specification:'Libertad Bold Italic';fill:#c8c8c8;fill-opacity:1;stroke-width:0.07839636px"
       id="path5271"
       inkscape:connector-curvature="0" />
  </g>
</svg>
